{"title":"The Boxtrolls 2014 1080p BluRay x264-SPARKS [RARBG]","uid":11673750,"size":5868794226,"categoryP":"video","categoryS":"hd___movies","magnet":"?xt=urn:btih:d573012af0e806f8f318ed93ea1d02cbc19af627&amp;dn=+The+Boxtrolls+2014+1080p+BluRay+x264-SPARKS+%5BRARBG%5D&amp;tr=udp%3A%2F%2Ftracker.openbittorrent.com%3A80&amp;tr=udp%3A%2F%2Fopen.demonii.com%3A1337&amp;tr=udp%3A%2F%2Ftracker.coppersurfer.tk%3A6969&amp;tr=udp%3A%2F%2Fexodus.desync.com%3A6969","seeders":25,"leechers":4,"uploader":"Anon_up","files":4,"time":1422755058,"description":"The.Boxtrolls.2014.1080p.BluRay.x264-SPARKS\n\nRelease.Date: 18.12.2014\nVideo.......: X264 6627Kbps\nFrame.Rate..: 23.976\nResolution..: 1920x1080\nAudio.......: DTS 1509Kbps 6ch\nLanguage....: English\nLength......: 1h 36mn\nSource......: Retail BluRay\nSize........: 5595MB\nSubtitles...: English, Portuguese, Spanish, Thai, Chinese, Indonesian, Korean\n\nIMDb: http://www.imdb.com/title/tt0787474\n\nALLiANCE - iMARS\n\nASCii/NFO: pH7 of SiLK\n\nVideo\nID : 1\nFormat : AVC\nFormat/Info : Advanced Video Codec\nFormat profile : &lt;a class=&quot;__cf_email__&quot; href=&quot;/cdn-cgi/l/email-protection&quot; data-cfemail=&quot;5a12333d321a166e746b&quot;&gt;[email&amp;#160;protected]&lt;/a&gt;&lt;script cf-hash='f9e31' type=&quot;text/javascript&quot;&gt;\n/* &lt;![CDATA[ */!function(){try{var t=&quot;currentScript&quot;in document?document.currentScript:function(){for(var t=document.getElementsByTagName(&quot;script&quot;),e=t.length;e--;)if(t[e].getAttribute(&quot;cf-hash&quot;))return t[e]}();if(t&amp;&amp;t.previousSibling){var e,r,n,i,c=t.previousSibling,a=c.getAttribute(&quot;data-cfemail&quot;);if(a){for(e=&quot;&quot;,r=parseInt(a.substr(0,2),16),n=2;a.length-n;n+=2)i=parseInt(a.substr(n,2),16)^r,e+=String.fromCharCode(i);e=document.createTextNode(e),c.parentNode.replaceChild(e,c)}}}catch(u){}}();/* ]]&gt; */&lt;/script&gt;\nFormat settings, CABAC : Yes\nFormat settings, ReFrames : 4 frames\nCodec ID : V_MPEG4/ISO/AVC\nDuration : 1h 36mn\nBit rate : 6 627 Kbps\nWidth : 1 920 pixels\nHeight : 1 080 pixels\nDisplay aspect ratio : 16:9\nFrame rate mode : Constant\nFrame rate : 23.976 fps\nColor space : YUV\nChroma subsampling : 4:2:0\nBit depth : 8 bits\nScan type : Progressive\nBits/(Pixel*Frame) : 0.133\nStream size : 4.34 GiB (79%)\nWriting library : x264 core 142 r2491 24e4fed\nEncoding settings : cabac=1 / ref=4 / deblock=1:0:0 / analyse=0x3:0x133 / me=umh / subme=7 / psy=1 / psy_rd=1.00:0.00 / mixed_ref=1 / me_range=16 / chroma_me=1 / trellis=1 / 8x8dct=1 / cqm=0 / deadzone=21,11 / fast_pskip=0 / chroma_qp_offset=-2 / threads=48 / lookahead_threads=8 / sliced_threads=0 / nr=0 / decimate=1 / interlaced=0 / bluray_compat=0 / constrained_intra=0 / bframes=3 / b_pyramid=2 / b_adapt=2 / b_bias=0 / direct=3 / weightb=1 / open_gop=0 / weightp=2 / keyint=250 / keyint_min=23 / scenecut=40 / intra_refresh=0 / rc_lookahead=50 / rc=2pass / mbtree=1 / bitrate=6627 / ratetol=1.0 / qcomp=0.60 / qpmin=0 / qpmax=69 / qpstep=4 / cplxblur=20.0 / qblur=0.5 / ip_ratio=1.40 / aq=1:1.00\nLanguage : English\nDefault : Yes\nForced : No\nDURATION : 01:36:09.681000000\nNUMBER_OF_FRAMES : 138334\nNUMBER_OF_BYTES : 4778772553\n_STATISTICS_WRITING_APP : mkvmerge v7.1.0 ('Good Love') 64bit built on Jul 27 2014 13:06:55\n_STATISTICS_WRITING_DATE_UTC : 2014-12-18 19:43:58\n_STATISTICS_TAGS : BPS DURATION NUMBER_OF_FRAMES NUMBER_OF_BYTES\n\nAudio\nID : 2\nFormat : DTS\nFormat/Info : Digital Theater Systems\nMode : 16\nFormat settings, Endianness : Big\nCodec ID : A_DTS\nDuration : 1h 36mn\nBit rate mode : Constant\nBit rate : 1 509 Kbps\nChannel(s) : 6 channels\nChannel positions : Front: L C R, Side: L R, LFE\nSampling rate : 48.0 KHz\nBit depth : 24 bits\nCompression mode : Lossy\nStream size : 1.01 GiB (19%)\nLanguage : English\nDefault : Yes\nForced : No","torrent":{"xt":"urn:btih:d573012af0e806f8f318ed93ea1d02cbc19af627","amp;dn":"+The+Boxtrolls+2014+1080p+BluRay+x264-SPARKS+%5BRARBG%5D","amp;tr":["udp%3A%2F%2Ftracker.openbittorrent.com%3A80","udp%3A%2F%2Fopen.demonii.com%3A1337","udp%3A%2F%2Ftracker.coppersurfer.tk%3A6969","udp%3A%2F%2Fexodus.desync.com%3A6969"],"infoHash":"d573012af0e806f8f318ed93ea1d02cbc19af627","infoHashBuffer":{"type":"Buffer","data":[213,115,1,42,240,232,6,248,243,24,237,147,234,29,2,203,193,154,246,39]},"announce":[],"urlList":[]}}